<svg width="26" height="26" viewBox="0 0 26 26" fill="none" xmlns="http://www.w3.org/2000/svg">
<path id="Vector" d="M25.9163 7.67402C25.9004 6.58288 25.6982 5.50039 25.3113 4.47988C24.6342 2.73722 23.2553 1.35924 21.5098 0.684666C20.5006 0.305577 19.4336 0.10234 18.3536 0.0792772C16.9647 0.0172969 16.5243 0 12.9986 0C9.47279 0 9.02088 9.66535e-08 7.64205 0.0792772C6.56353 0.10234 5.49656 0.305577 4.48734 0.684666C2.74178 1.35924 1.36151 2.73722 0.685806 4.47988C0.306086 5.48742 0.101066 6.55261 0.0808529 7.62934C0.0187694 9.01741 0 9.45704 0 12.9769C0 16.4968 -1.07572e-08 16.9466 0.0808529 18.3245C0.10251 19.4027 0.306086 20.4665 0.685806 21.4769C1.36295 23.2181 2.74178 24.5961 4.48878 25.2707C5.49367 25.6627 6.56064 25.8847 7.64349 25.9193C9.03388 25.9813 9.47424 26 13 26C16.5258 26 16.9777 26 18.3565 25.9193C19.435 25.8977 20.502 25.6944 21.5127 25.3153C23.2582 24.6393 24.6371 23.2613 25.3142 21.5201C25.6939 20.5111 25.8975 19.4474 25.9191 18.3678C25.9812 16.9812 26 16.5415 26 13.0202C25.9971 9.50028 25.9971 9.05344 25.9163 7.67402ZM12.9899 19.6333C9.30242 19.6333 6.31519 16.6511 6.31519 12.9697C6.31519 9.28839 9.30242 6.30613 12.9899 6.30613C16.6745 6.30613 19.6646 9.28839 19.6646 12.9697C19.6646 16.6511 16.6745 19.6333 12.9899 19.6333ZM19.9303 7.61348C19.0683 7.61348 18.3738 6.91873 18.3738 6.05965C18.3738 5.20058 19.0683 4.50582 19.9303 4.50582C20.7893 4.50582 21.4852 5.20058 21.4852 6.05965C21.4852 6.91873 20.7893 7.61348 19.9303 7.61348Z" fill="url(#paint0_radial_57682_221)"/>
<defs>
<radialGradient id="paint0_radial_57682_221" cx="0" cy="0" r="1" gradientUnits="userSpaceOnUse" gradientTransform="translate(6.90625 28.0025) rotate(-90) scale(25.7679 23.9662)">
<stop stop-color="#FFDD55"/>
<stop offset="0.1" stop-color="#FFDD55"/>
<stop offset="0.5" stop-color="#FF543E"/>
<stop offset="1" stop-color="#C837AB"/>
</radialGradient>
</defs>
</svg>
