<svg xmlns="http://www.w3.org/2000/svg" width="22" height="20" viewBox="0 0 22 20" fill="none">
<path d="M6.664 8.544C6.664 9.26933 6.77067 9.86666 6.984 10.336C7.19733 10.7627 7.432 11.1893 7.688 11.616C7.944 12 8.17867 12.4267 8.392 12.896C8.60533 13.3653 8.712 13.9627 8.712 14.688C8.712 16.1813 8.30667 17.2907 7.496 18.016C6.728 18.6987 5.72533 19.04 4.488 19.04C3.25067 19.04 2.22667 18.6987 1.416 18.016C0.605333 17.2907 0.2 16.1813 0.2 14.688C0.2 13.5787 0.349333 12.384 0.648 11.104C0.989334 9.78133 1.43733 8.48 1.992 7.2C2.54667 5.92 3.16533 4.704 3.848 3.552C4.57333 2.4 5.29867 1.39733 6.024 0.543999L8.904 2.464C8.30667 3.31733 7.77333 4.29867 7.304 5.408C6.87733 6.47467 6.664 7.52 6.664 8.544ZM19.464 8.544C19.464 9.26933 19.5707 9.86666 19.784 10.336C19.9973 10.7627 20.232 11.1893 20.488 11.616C20.744 12 20.9787 12.4267 21.192 12.896C21.4053 13.3653 21.512 13.9627 21.512 14.688C21.512 16.1813 21.1067 17.2907 20.296 18.016C19.528 18.6987 18.5253 19.04 17.288 19.04C16.0507 19.04 15.0267 18.6987 14.216 18.016C13.4053 17.2907 13 16.1813 13 14.688C13 13.5787 13.1493 12.384 13.448 11.104C13.7893 9.78133 14.2373 8.48 14.792 7.2C15.3467 5.92 15.9653 4.704 16.648 3.552C17.3733 2.4 18.0987 1.39733 18.824 0.543999L21.704 2.464C21.1067 3.31733 20.5733 4.29867 20.104 5.408C19.6773 6.47467 19.464 7.52 19.464 8.544Z" fill="#1E5B2A"/>
</svg>