<svg aria-hidden="true" style="position: absolute; width: 0; height: 0; overflow: hidden;" version="1.1"
    xmlns="http://www.w3.org/2000/svg" xmlns:xlink="http://www.w3.org/1999/xlink">
    <defs>
        <symbol id="icon-player-play" viewBox="0 0 32 32">
            <path
                d="M24.658 16.071l-6.764-6.764c-0.080-0.093-0.178-0.169-0.288-0.222s-0.23-0.083-0.353-0.088c-0.122-0.005-0.244 0.016-0.359 0.061s-0.218 0.112-0.304 0.199c-0.087 0.087-0.154 0.19-0.199 0.304s-0.065 0.236-0.061 0.359c0.005 0.122 0.035 0.243 0.088 0.353s0.129 0.208 0.222 0.288l4.533 4.551h-13.333c-0.236 0-0.462 0.094-0.629 0.26s-0.26 0.393-0.26 0.629 0.094 0.462 0.26 0.629c0.167 0.167 0.393 0.26 0.629 0.26h13.493l-4.693 4.693c-0.093 0.080-0.169 0.178-0.222 0.288s-0.083 0.23-0.088 0.353c-0.005 0.122 0.016 0.244 0.061 0.359s0.112 0.218 0.199 0.304c0.087 0.087 0.19 0.154 0.304 0.199s0.236 0.065 0.359 0.061c0.122-0.005 0.243-0.035 0.353-0.088s0.208-0.129 0.288-0.222l6.764-6.764z">
            </path>
        </symbol>
        <symbol id="icon-arrows-right" viewBox="0 0 32 32">
            <path
                d="M24.658 16.071l-6.764-6.764c-0.080-0.093-0.178-0.169-0.288-0.222s-0.23-0.083-0.353-0.088c-0.122-0.005-0.244 0.016-0.359 0.061s-0.218 0.112-0.304 0.199c-0.087 0.087-0.154 0.19-0.199 0.304s-0.065 0.236-0.061 0.359c0.005 0.122 0.035 0.243 0.088 0.353s0.129 0.208 0.222 0.288l4.533 4.551h-13.333c-0.236 0-0.462 0.094-0.629 0.26s-0.26 0.393-0.26 0.629 0.094 0.462 0.26 0.629c0.167 0.167 0.393 0.26 0.629 0.26h13.493l-4.693 4.693c-0.093 0.080-0.169 0.178-0.222 0.288s-0.083 0.23-0.088 0.353c-0.005 0.122 0.016 0.244 0.061 0.359s0.112 0.218 0.199 0.304c0.087 0.087 0.19 0.154 0.304 0.199s0.236 0.065 0.359 0.061c0.122-0.005 0.243-0.035 0.353-0.088s0.208-0.129 0.288-0.222l6.764-6.764z">
            </path>
        </symbol>
        <symbol id="icon-arrows-left" viewBox="0 0 32 32">
            <path
                d="M7.342 15.929l6.764 6.764c0.080 0.093 0.178 0.169 0.288 0.222s0.23 0.083 0.353 0.088c0.122 0.005 0.244-0.016 0.359-0.061s0.218-0.112 0.304-0.199c0.087-0.087 0.154-0.19 0.199-0.304s0.065-0.236 0.061-0.359c-0.005-0.122-0.035-0.243-0.088-0.353s-0.129-0.208-0.222-0.288l-4.533-4.551h13.333c0.236 0 0.462-0.094 0.629-0.26s0.26-0.393 0.26-0.629-0.094-0.462-0.26-0.629c-0.167-0.167-0.393-0.26-0.629-0.26h-13.493l4.693-4.693c0.093-0.080 0.169-0.178 0.222-0.288s0.083-0.23 0.088-0.353c0.005-0.122-0.016-0.244-0.061-0.359s-0.112-0.218-0.199-0.304c-0.087-0.087-0.19-0.154-0.304-0.199s-0.236-0.065-0.359-0.061c-0.122 0.005-0.243 0.035-0.353 0.088s-0.208 0.129-0.288 0.222l-6.764 6.764z">
            </path>
        </symbol>
        <symbol id="icon-youtube-great" viewBox="0 0 32 32">
            <path
                d="M27.76 11.505c0 0-0.24-1.6-0.96-2.286-0.88-0.914-1.92-0.914-2.4-0.99-3.36-0.229-8.4-0.229-8.4-0.229s-5.040 0-8.4 0.229c-0.48 0.076-1.52 0.076-2.4 0.99-0.72 0.686-0.96 2.286-0.96 2.286s-0.24 1.829-0.24 3.657v1.676c0 1.829 0.24 3.733 0.24 3.733s0.24 1.6 0.96 2.286c0.88 0.914 2.080 0.914 2.64 0.991 1.92 0.076 8.16 0.152 8.16 0.152s5.040 0 8.4-0.229c0.48-0.076 1.52-0.076 2.4-0.99 0.72-0.686 0.96-2.286 0.96-2.286s0.24-1.829 0.24-3.657v-1.676c0-1.829-0.24-3.657-0.24-3.657zM13.52 18.971v-6.4l6.48 3.2-6.48 3.2z">
            </path>
        </symbol>
        <symbol id="icon-instagram-great" viewBox="0 0 32 32">
            <path
                d="M15.992 19.976c2.211 0 4.004-1.793 4.004-4.004s-1.793-4.004-4.004-4.004c-2.211 0-4.004 1.793-4.004 4.004s1.793 4.004 4.004 4.004z">
            </path>
            <path
                d="M27.923 11.084c-0.015-1.007-0.201-2.006-0.558-2.948-0.625-1.609-1.898-2.881-3.509-3.503-0.932-0.35-1.916-0.538-2.913-0.559-1.282-0.057-1.689-0.073-4.943-0.073s-3.672 0-4.944 0.073c-0.996 0.021-1.98 0.209-2.912 0.559-1.611 0.623-2.885 1.895-3.509 3.503-0.351 0.93-0.54 1.913-0.558 2.907-0.057 1.281-0.075 1.687-0.075 4.936s0 3.664 0.075 4.936c0.020 0.995 0.208 1.977 0.558 2.91 0.625 1.607 1.898 2.879 3.51 3.502 0.928 0.362 1.912 0.567 2.912 0.599 1.284 0.057 1.69 0.075 4.944 0.075s3.672 0 4.944-0.075c0.995-0.020 1.98-0.208 2.913-0.558 1.611-0.624 2.884-1.896 3.509-3.503 0.351-0.931 0.538-1.913 0.558-2.91 0.057-1.28 0.075-1.686 0.075-4.936-0.003-3.249-0.003-3.662-0.077-4.935zM15.991 22.123c-3.404 0-6.161-2.753-6.161-6.151s2.758-6.151 6.161-6.151c3.401 0 6.161 2.753 6.161 6.151s-2.76 6.151-6.161 6.151zM22.397 11.028c-0.796 0-1.437-0.641-1.437-1.434s0.641-1.434 1.437-1.434c0.793 0 1.435 0.641 1.435 1.434s-0.642 1.434-1.435 1.434z">
            </path>
        </symbol>
        <symbol id="icon-facebook-great" viewBox="0 0 32 32">
            <path
                d="M18.437 28v-10.948h3.832l0.573-4.266h-4.406v-2.723c0-1.235 0.359-2.078 2.205-2.078h2.357v-3.822c-1.142-0.114-2.289-0.168-3.436-0.162-3.394 0-5.731 1.983-5.731 5.64v3.146h-3.832v4.266h3.832v10.948h4.605z">
            </path>
        </symbol>
        <symbol id="icon-telegram-great" viewBox="0 0 32 32">
            <path
                d="M26.38 5.138l-21.259 8.553c-1.451 0.608-1.442 1.453-0.266 1.829l5.458 1.776 12.629-8.313c0.597-0.379 1.143-0.175 0.694 0.24l-10.232 9.635-0.377 5.87c0.552 0 0.795-0.264 1.104-0.576l2.651-2.69 5.514 4.25c1.017 0.584 1.747 0.284 2-0.982l3.62-17.799c0.37-1.55-0.567-2.252-1.537-1.794z">
            </path>
        </symbol>
        <symbol id="icon-puzzle-left" viewBox="0 0 32 32">
            <path
                d="M5.333 21.333c-0.582-0.001-1.157-0.129-1.684-0.375s-0.995-0.604-1.37-1.049c-0.375-0.445-0.648-0.967-0.8-1.529s-0.18-1.15-0.082-1.724c0.098-0.574 0.321-1.119 0.652-1.598s0.762-0.88 1.264-1.175c0.502-0.295 1.062-0.477 1.641-0.533s1.164 0.015 1.713 0.208v-8.227c0-0.354 0.14-0.693 0.391-0.943s0.589-0.391 0.943-0.391h4.168c0.204-0 0.404 0.046 0.587 0.136s0.343 0.22 0.467 0.381c0.125 0.161 0.211 0.348 0.252 0.548s0.036 0.406-0.015 0.603c-0.152 0.591-0.167 1.209-0.043 1.806s0.382 1.159 0.756 1.641c0.374 0.482 0.853 0.872 1.401 1.141s1.15 0.408 1.76 0.408c0.61 0 1.212-0.139 1.76-0.408s1.027-0.659 1.401-1.141c0.374-0.482 0.633-1.043 0.756-1.641s0.109-1.215-0.043-1.806c-0.051-0.197-0.056-0.403-0.015-0.602s0.127-0.387 0.252-0.547c0.125-0.161 0.284-0.291 0.467-0.381s0.384-0.136 0.587-0.136h4.168c0.354 0 0.693 0.14 0.943 0.391s0.391 0.589 0.391 0.943v21.333c0 0.354-0.14 0.693-0.391 0.943s-0.589 0.39-0.943 0.39h-18.667c-0.354 0-0.693-0.14-0.943-0.39s-0.391-0.589-0.391-0.943v-5.56c-0.417 0.147-0.867 0.227-1.333 0.227z">
            </path>
        </symbol>
        <symbol id="icon-puzzle-top" viewBox="0 0 32 32">
            <path
                d="M10.667 5.333c0.001-0.582 0.129-1.157 0.375-1.684s0.604-0.995 1.049-1.37c0.445-0.375 0.967-0.648 1.529-0.8s1.15-0.18 1.724-0.082c0.574 0.098 1.119 0.321 1.598 0.652s0.88 0.762 1.175 1.264c0.295 0.502 0.477 1.062 0.533 1.641s-0.015 1.164-0.208 1.713h8.227c0.354 0 0.693 0.14 0.943 0.391s0.39 0.589 0.39 0.943v4.168c0 0.204-0.046 0.405-0.136 0.587s-0.22 0.343-0.381 0.467-0.348 0.211-0.548 0.252c-0.199 0.041-0.406 0.036-0.603-0.015-0.591-0.152-1.209-0.167-1.806-0.043s-1.159 0.382-1.641 0.756c-0.482 0.374-0.872 0.853-1.141 1.401s-0.408 1.15-0.408 1.76 0.14 1.212 0.408 1.76c0.268 0.548 0.659 1.027 1.141 1.401s1.043 0.633 1.641 0.756 1.215 0.109 1.806-0.043c0.197-0.051 0.403-0.056 0.602-0.015s0.387 0.127 0.547 0.252c0.161 0.125 0.291 0.284 0.381 0.467s0.136 0.383 0.136 0.587v4.168c0 0.354-0.14 0.693-0.39 0.943s-0.589 0.39-0.943 0.39h-21.333c-0.354 0-0.693-0.14-0.943-0.39s-0.391-0.589-0.391-0.943v-18.667c0-0.354 0.14-0.693 0.391-0.943s0.589-0.391 0.943-0.391h5.56c-0.147-0.417-0.227-0.867-0.227-1.333z">
            </path>
        </symbol>
        <symbol id="icon-puzzle-bottom" viewBox="0 0 32 32">
            <path
                d="M21.333 26.667c-0.001 0.582-0.129 1.157-0.375 1.684s-0.604 0.995-1.049 1.37c-0.445 0.375-0.967 0.648-1.529 0.8s-1.15 0.18-1.724 0.082c-0.574-0.098-1.119-0.321-1.598-0.652s-0.88-0.762-1.175-1.264c-0.295-0.502-0.477-1.062-0.533-1.641s0.015-1.164 0.208-1.713h-8.227c-0.354 0-0.693-0.14-0.943-0.39s-0.391-0.589-0.391-0.943v-4.168c-0-0.204 0.046-0.404 0.136-0.587s0.22-0.343 0.381-0.468 0.348-0.211 0.548-0.252c0.199-0.041 0.406-0.036 0.603 0.015 0.591 0.152 1.209 0.167 1.806 0.043s1.159-0.382 1.641-0.756c0.482-0.374 0.872-0.853 1.141-1.401s0.408-1.15 0.408-1.76-0.14-1.212-0.408-1.76c-0.268-0.548-0.659-1.027-1.141-1.401s-1.043-0.633-1.641-0.756-1.215-0.109-1.806 0.043c-0.197 0.051-0.403 0.056-0.602 0.015s-0.387-0.127-0.547-0.252-0.291-0.284-0.381-0.467c-0.090-0.183-0.136-0.383-0.136-0.587v-4.168c0-0.354 0.14-0.693 0.391-0.943s0.589-0.391 0.943-0.391h21.333c0.354 0 0.693 0.14 0.943 0.391s0.39 0.589 0.39 0.943v18.667c0 0.354-0.14 0.693-0.39 0.943s-0.589 0.39-0.943 0.39h-5.56c0.147 0.417 0.227 0.867 0.227 1.333z">
            </path>
        </symbol>
        <symbol id="icon-puzzle-right" viewBox="0 0 32 32">
            <path
                d="M26.667 10.667c0.582 0.001 1.157 0.129 1.684 0.375s0.995 0.604 1.37 1.049c0.375 0.445 0.648 0.967 0.8 1.529s0.18 1.15 0.082 1.724c-0.098 0.574-0.321 1.119-0.652 1.598s-0.762 0.88-1.264 1.175c-0.502 0.295-1.062 0.477-1.641 0.533s-1.164-0.015-1.713-0.208v8.227c0 0.354-0.14 0.693-0.391 0.943s-0.589 0.39-0.943 0.39h-4.168c-0.203 0-0.404-0.046-0.587-0.136s-0.343-0.22-0.468-0.381c-0.125-0.161-0.211-0.348-0.252-0.548s-0.036-0.406 0.015-0.603c0.152-0.591 0.167-1.209 0.043-1.806s-0.382-1.159-0.756-1.641c-0.374-0.482-0.853-0.872-1.401-1.141s-1.15-0.408-1.76-0.408c-0.61 0-1.212 0.14-1.76 0.408s-1.027 0.659-1.401 1.141c-0.374 0.482-0.633 1.043-0.756 1.641s-0.109 1.215 0.043 1.806c0.051 0.197 0.056 0.403 0.015 0.602s-0.127 0.387-0.252 0.547c-0.124 0.161-0.284 0.291-0.467 0.381s-0.383 0.136-0.587 0.136h-4.168c-0.354 0-0.693-0.14-0.943-0.39s-0.391-0.589-0.391-0.943v-21.333c0-0.354 0.14-0.693 0.391-0.943s0.589-0.391 0.943-0.391h18.667c0.354 0 0.693 0.14 0.943 0.391s0.391 0.589 0.391 0.943v5.56c0.417-0.147 0.867-0.227 1.333-0.227z">
            </path>
        </symbol>
        <symbol id="icon-search" viewBox="0 0 32 32">
            <path stroke-linejoin="round" stroke-linecap="round" stroke-miterlimit="4" stroke-width="2"
                d="M14.667 25.333c5.891 0 10.667-4.776 10.667-10.667s-4.776-10.667-10.667-10.667c-5.891 0-10.667 4.776-10.667 10.667s4.776 10.667 10.667 10.667z">
            </path>
            <path stroke-linejoin="round" stroke-linecap="round" stroke-miterlimit="4" stroke-width="2"
                d="M28 28l-5.733-5.733"></path>
        </symbol>
        <symbol id="icon-youtube-small" viewBox="0 0 32 32">
            <path stroke-linejoin="round" stroke-linecap="round" stroke-miterlimit="4" stroke-width="2"
                d="M4.753 23.064c-0.197-0.196-0.341-0.437-0.418-0.701-0.891-4.196-0.891-8.53 0-12.726 0.077-0.264 0.221-0.505 0.418-0.701 0.193-0.191 0.43-0.333 0.692-0.412 6.99-1.144 14.121-1.144 21.111 0 0.262 0.079 0.499 0.221 0.692 0.412 0.197 0.196 0.341 0.437 0.418 0.701 0.891 4.196 0.891 8.53 0 12.726-0.077 0.264-0.221 0.505-0.418 0.701-0.193 0.191-0.43 0.333-0.692 0.412-6.99 1.144-14.121 1.144-21.111 0-0.262-0.079-0.499-0.221-0.692-0.412z">
            </path>
            <path
                d="M13.333 19.137c0 0.396 0.417 0.654 0.772 0.477l6.274-3.137c0.393-0.197 0.393-0.758 0-0.954l-6.274-3.137c-0.355-0.177-0.772 0.081-0.772 0.477v6.274z">
            </path>
        </symbol>
        <symbol id="icon-instagram-small" viewBox="0 0 32 32">
            <path stroke-linejoin="round" stroke-linecap="round" stroke-miterlimit="4" stroke-width="2"
                d="M9.333 3.667h13.333c3.13 0 5.667 2.537 5.667 5.667v13.333c0 3.13-2.537 5.667-5.667 5.667h-13.333c-3.13 0-5.667-2.537-5.667-5.667v-13.333c0-3.13 2.537-5.667 5.667-5.667z">
            </path>
            <path stroke-linejoin="round" stroke-linecap="round" stroke-miterlimit="4" stroke-width="2.6667"
                d="M21.333 15.16c0.165 1.11-0.025 2.243-0.542 3.239s-1.334 1.803-2.336 2.308c-1.002 0.504-2.138 0.68-3.245 0.502s-2.131-0.701-2.924-1.494c-0.793-0.793-1.316-1.816-1.494-2.924s-0.003-2.243 0.502-3.245c0.504-1.002 1.312-1.82 2.307-2.336s2.129-0.706 3.239-0.542c1.132 0.168 2.18 0.695 2.989 1.504s1.337 1.857 1.505 2.989z">
            </path>
            <path stroke-linejoin="round" stroke-linecap="round" stroke-miterlimit="4" stroke-width="2.6667"
                d="M23.333 8.667h0.013"></path>
        </symbol>
        <symbol id="icon-facebook-small" viewBox="0 0 32 32">
            <path
                d="M8 2.667h16c2.946 0 5.333 2.388 5.333 5.333v16c0 2.946-2.388 5.333-5.333 5.333h-16c-2.946 0-5.333-2.388-5.333-5.333v-16c0-2.946 2.388-5.333 5.333-5.333z">
            </path>
            <path
                d="M18.613 7.395c0.18 0 0.36 0 0.721 0v2.776c-0.18 0-0.541 0-0.901 0s-0.721 0-0.901 0.185c-0.18 0.185-0.18 0.37-0.18 0.802 0 0.37 0 0.617 0 0.987h1.982v2.344h-1.982v10.178h-3.063v-10.24h-1.622v-2.344h1.622v-0.802c0-1.357 0.18-2.344 0.541-2.776 0.541-0.802 1.622-1.172 3.243-1.172 0.18 0.062 0.36 0.062 0.541 0.062z">
            </path>
        </symbol>
        <symbol id="icon-telegram-small" viewBox="0 0 32 32">
            <path
                d="M29.257 6.73l-4.024 19.235c-0.304 1.358-1.095 1.695-2.22 1.056l-6.132-4.579-2.959 2.884c-0.327 0.332-0.601 0.609-1.232 0.609l0.441-6.329 11.364-10.408c0.494-0.446-0.107-0.694-0.768-0.247l-14.049 8.966-6.048-1.919c-1.316-0.416-1.339-1.333 0.274-1.973l23.657-9.237c1.095-0.416 2.054 0.247 1.697 1.943z">
            </path>
        </symbol>
        <symbol id="icon-phone-call" viewBox="0 0 32 32">
            <path stroke-linejoin="round" stroke-linecap="round" stroke-miterlimit="4" stroke-width="2"
                d="M29.333 22.56v4c0.002 0.371-0.075 0.739-0.223 1.079s-0.367 0.646-0.641 0.897c-0.274 0.251-0.597 0.442-0.948 0.561s-0.725 0.163-1.094 0.13c-4.103-0.446-8.044-1.848-11.507-4.093-3.222-2.047-5.953-4.778-8-8-2.253-3.478-3.656-7.439-4.093-11.56-0.033-0.369 0.010-0.74 0.129-1.091s0.308-0.673 0.558-0.947c0.25-0.273 0.553-0.492 0.892-0.641s0.705-0.227 1.075-0.227h4c0.647-0.006 1.274 0.223 1.765 0.645s0.811 1.008 0.902 1.649c0.169 1.28 0.482 2.537 0.933 3.747 0.179 0.477 0.218 0.996 0.112 1.495s-0.353 0.956-0.712 1.319l-1.693 1.693c1.898 3.338 4.662 6.102 8 8l1.693-1.693c0.363-0.359 0.82-0.606 1.319-0.712s1.017-0.067 1.494 0.112c1.21 0.451 2.467 0.765 3.747 0.933 0.648 0.091 1.239 0.418 1.662 0.917s0.647 1.136 0.631 1.79z">
            </path>
            <path stroke-linejoin="round" stroke-linecap="round" stroke-miterlimit="4" stroke-width="2"
                d="M18.733 2.667c2.718 0.286 5.256 1.492 7.196 3.417s3.164 4.454 3.471 7.17"></path>
            <path stroke-linejoin="round" stroke-linecap="round" stroke-miterlimit="4" stroke-width="2"
                d="M18.733 8c1.311 0.259 2.515 0.905 3.454 1.856s1.571 2.162 1.813 3.477"></path>
        </symbol>
        <symbol id="icon-phone" viewBox="0 0 32 32">
            <path stroke-linejoin="round" stroke-linecap="round" stroke-miterlimit="4" stroke-width="2"
                d="M29.333 22.56v4c0.002 0.371-0.075 0.739-0.223 1.079s-0.367 0.646-0.641 0.897c-0.274 0.251-0.597 0.442-0.948 0.561s-0.725 0.163-1.094 0.13c-4.103-0.446-8.044-1.848-11.507-4.093-3.222-2.047-5.953-4.778-8-8-2.253-3.478-3.656-7.439-4.093-11.56-0.033-0.369 0.010-0.74 0.129-1.091s0.308-0.673 0.558-0.947c0.25-0.273 0.553-0.492 0.892-0.641s0.705-0.227 1.075-0.227h4c0.647-0.006 1.274 0.223 1.765 0.645s0.811 1.008 0.902 1.649c0.169 1.28 0.482 2.537 0.933 3.747 0.179 0.477 0.218 0.996 0.112 1.495s-0.353 0.956-0.712 1.319l-1.693 1.693c1.898 3.338 4.662 6.102 8 8l1.693-1.693c0.363-0.359 0.82-0.606 1.319-0.712s1.017-0.067 1.494 0.112c1.21 0.451 2.467 0.765 3.747 0.933 0.648 0.091 1.239 0.418 1.662 0.917s0.647 1.136 0.631 1.79z">
            </path>
        </symbol>
        <symbol id="icon-close" viewBox="0 0 32 32">
            <path stroke-linejoin="round" stroke-linecap="round" stroke-miterlimit="4" stroke-width="2"
                d="M24 8l-16 16"></path>
            <path stroke-linejoin="round" stroke-linecap="round" stroke-miterlimit="4" stroke-width="2" d="M8 8l16 16">
            </path>
        </symbol>
        <symbol id="icon-plus" viewBox="0 0 32 32">
            <path stroke-linejoin="round" stroke-linecap="round" stroke-miterlimit="4" stroke-width="2"
                d="M6.667 16h18.667"></path>
            <path stroke-linejoin="round" stroke-linecap="round" stroke-miterlimit="4" stroke-width="2"
                d="M16 6.667v18.667"></path>
        </symbol>
        <symbol id="icon-chevron-down" viewBox="0 0 32 32">
            <path stroke-linejoin="round" stroke-linecap="round" stroke-miterlimit="4" stroke-width="2"
                d="M8 12l8 8 8-8"></path>
        </symbol>
        <symbol id="icon-chevron-up" viewBox="0 0 32 32">
            <path stroke-linejoin="round" stroke-linecap="round" stroke-miterlimit="4" stroke-width="2"
                d="M24 20l-8-8-8 8"></path>
        </symbol>
        <symbol id="icon-chevron-right" viewBox="0 0 32 32">
            <path stroke-linejoin="round" stroke-linecap="round" stroke-miterlimit="4" stroke-width="2"
                d="M12 24l8-8-8-8"></path>
        </symbol>
        <symbol id="icon-chevron-left" viewBox="0 0 32 32">
            <path stroke-linejoin="round" stroke-linecap="round" stroke-miterlimit="4" stroke-width="2"
                d="M20 24l-8-8 8-8"></path>
        </symbol>
        <symbol id="icon-paginator-chevron-left" viewBox="0 0 32 32">
            <path
                d="M14.133 16.947c-0.125-0.124-0.224-0.271-0.292-0.434s-0.103-0.337-0.103-0.513 0.035-0.35 0.103-0.513c0.068-0.162 0.167-0.31 0.292-0.434l6.12-6.107c0.125-0.124 0.224-0.271 0.292-0.434s0.103-0.337 0.103-0.513-0.035-0.35-0.103-0.513c-0.068-0.162-0.167-0.31-0.292-0.434-0.25-0.248-0.588-0.388-0.94-0.388s-0.69 0.139-0.94 0.388l-6.12 6.12c-0.749 0.75-1.17 1.767-1.17 2.827s0.421 2.077 1.17 2.827l6.12 6.12c0.248 0.246 0.584 0.385 0.933 0.387 0.175 0.001 0.349-0.033 0.512-0.099s0.31-0.164 0.435-0.288c0.125-0.124 0.224-0.271 0.292-0.434s0.103-0.337 0.103-0.513-0.035-0.35-0.103-0.513c-0.068-0.163-0.167-0.31-0.292-0.434l-6.12-6.107z">
            </path>
        </symbol>
        <symbol id="icon-paginator-chevron-right" viewBox="0 0 32 32">
            <path
                d="M17.867 16.947c0.125-0.124 0.224-0.271 0.292-0.434s0.103-0.337 0.103-0.513-0.035-0.35-0.103-0.513c-0.068-0.162-0.167-0.31-0.292-0.434l-6.12-6.107c-0.125-0.124-0.224-0.271-0.292-0.434s-0.103-0.337-0.103-0.513c0-0.176 0.035-0.35 0.103-0.513s0.167-0.31 0.292-0.434c0.25-0.248 0.588-0.388 0.94-0.388s0.69 0.139 0.94 0.388l6.12 6.12c0.749 0.75 1.17 1.767 1.17 2.827s-0.421 2.077-1.17 2.827l-6.12 6.12c-0.248 0.246-0.584 0.385-0.933 0.387-0.175 0.001-0.349-0.033-0.512-0.099s-0.31-0.164-0.435-0.288c-0.125-0.124-0.224-0.271-0.292-0.434s-0.103-0.337-0.103-0.513c0-0.176 0.035-0.35 0.103-0.513s0.167-0.31 0.292-0.434l6.12-6.107z">
            </path>
        </symbol>
        <symbol id="icon-menu" viewBox="0 0 32 32">
            <path
                d="M5.333 24h21.333c0.733 0 1.333-0.6 1.333-1.333s-0.6-1.333-1.333-1.333h-21.333c-0.733 0-1.333 0.6-1.333 1.333s0.6 1.333 1.333 1.333zM5.333 17.333h21.333c0.733 0 1.333-0.6 1.333-1.333s-0.6-1.333-1.333-1.333h-21.333c-0.733 0-1.333 0.6-1.333 1.333s0.6 1.333 1.333 1.333zM4 9.333c0 0.733 0.6 1.333 1.333 1.333h21.333c0.733 0 1.333-0.6 1.333-1.333s-0.6-1.333-1.333-1.333h-21.333c-0.733 0-1.333 0.6-1.333 1.333z">
            </path>
        </symbol>
        <symbol id="icon-scroll-arrow" viewBox="0 0 24 24">
            <path
               d="M18 15L12 9L6 15" stroke="white" stroke-width="1.5" stroke-linecap="round" stroke-linejoin="round">
            </path>
        </symbol>
        <symbol id="icon-arrow-left" viewBox="0 0 32 32">
            <path
               d="M7.342 15.929l6.764 6.764c0.080 0.093 0.178 0.169 0.288 0.222s0.23 0.083 0.353 0.088c0.122 0.005 0.244-0.016 0.359-0.061s0.218-0.112 0.304-0.199c0.087-0.087 0.154-0.19 0.199-0.304s0.065-0.236 0.061-0.359c-0.005-0.122-0.035-0.243-0.088-0.353s-0.129-0.208-0.222-0.288l-4.533-4.551h13.333c0.236 0 0.462-0.094 0.629-0.26s0.26-0.393 0.26-0.629c0-0.236-0.094-0.462-0.26-0.629s-0.393-0.26-0.629-0.26h-13.493l4.693-4.693c0.093-0.080 0.169-0.178 0.222-0.288s0.083-0.23 0.088-0.353c0.005-0.122-0.016-0.245-0.061-0.359s-0.112-0.218-0.199-0.304c-0.087-0.087-0.19-0.154-0.304-0.199s-0.236-0.065-0.359-0.061c-0.122 0.005-0.243 0.035-0.353 0.088s-0.208 0.129-0.288 0.222l-6.764 6.764z">
            </path> 
        </symbol>
        <symbol id="icon-arrow-right" viewBox="0 0 32 32">
            <path
               d="M24.658 16.071l-6.764-6.764c-0.080-0.093-0.178-0.169-0.288-0.222s-0.23-0.083-0.353-0.088c-0.122-0.005-0.244 0.016-0.359 0.061s-0.218 0.112-0.304 0.199c-0.087 0.087-0.154 0.19-0.199 0.304s-0.065 0.236-0.061 0.359c0.005 0.122 0.035 0.243 0.088 0.353s0.129 0.208 0.222 0.288l4.533 4.551h-13.333c-0.236 0-0.462 0.094-0.629 0.26s-0.26 0.393-0.26 0.629c0 0.236 0.094 0.462 0.26 0.629s0.393 0.26 0.629 0.26h13.493l-4.693 4.693c-0.093 0.080-0.169 0.178-0.222 0.288s-0.083 0.23-0.088 0.353c-0.005 0.122 0.016 0.245 0.061 0.359s0.112 0.218 0.199 0.304c0.087 0.087 0.19 0.154 0.304 0.199s0.236 0.065 0.359 0.061c0.122-0.005 0.243-0.035 0.353-0.088s0.208-0.129 0.288-0.222l6.764-6.764z">
            </path>
        </symbol>
        <symbol id="icon-cross" viewBox="0 0 24 24">
           <path d="M18 6L6 18"  stroke-width="2.5" stroke-linecap="round" stroke-linejoin="round"/>
           <path d="M6 6L18 18"  stroke-width="2.5" stroke-linecap="round" stroke-linejoin="round"/>
         </symbol>
         <symbol id="icon-star" viewBox="0 0 8 8">
            <path d="M4 6.02482L5.45496 6.94559C5.72141 7.11434 6.04746 6.86489 5.97734 6.5494L5.59169 4.81791L6.87836 3.65135C7.11326 3.43858 6.98704 3.03506 6.67852 3.00938L4.98516 2.85897L4.32254 1.22286C4.20334 0.925714 3.79666 0.925714 3.67746 1.22286L3.01484 2.8553L1.32148 3.00571C1.01296 3.03139 0.886744 3.43491 1.12164 3.64768L2.40831 4.81424L2.02266 6.54573C1.95254 6.86122 2.27859 7.11067 2.54504 6.94192L4 6.02482Z" fill="#961C1C"/>
         </symbol>
        <symbol id="icon-linkedin" viewBox="0 0 16 16">
            <path id="Vector" d="M14.5 0.375058H1.5C1.20504 0.372056 0.920934 0.486188 0.710024 0.692411C0.499114 0.898635 0.378626 1.1801 0.375 1.47506V14.5276C0.379282 14.8221 0.500058 15.1029 0.710896 15.3086C0.921735 15.5143 1.20547 15.6281 1.5 15.6251H14.5C14.795 15.6274 15.0789 15.5129 15.2897 15.3065C15.5005 15.1002 15.621 14.8188 15.625 14.5238V1.47131C15.6197 1.17722 15.4986 0.897091 15.288 0.691815C15.0773 0.486538 14.7941 0.372705 14.5 0.375058Z" fill="#0076B2"/>
            <path id="Vector_2" d="M2.63252 6.09131H4.89626V13.3751H2.63252V6.09131ZM3.76502 2.46631C4.02466 2.46631 4.27846 2.54332 4.49433 2.68759C4.7102 2.83187 4.87842 3.03692 4.97773 3.27683C5.07703 3.51673 5.10295 3.78069 5.0522 4.03532C5.00146 4.28996 4.87633 4.52382 4.69265 4.70733C4.50897 4.89083 4.27499 5.01574 4.0203 5.06624C3.76562 5.11674 3.50168 5.09057 3.26188 4.99104C3.02207 4.89151 2.81717 4.72309 2.6731 4.50708C2.52903 4.29108 2.45227 4.0372 2.45252 3.77756C2.45285 3.42968 2.59127 3.09616 2.83738 2.85029C3.08348 2.60442 3.41714 2.46631 3.76502 2.46631ZM6.31626 6.09131H8.48627V7.09131H8.51626C8.81876 6.51881 9.55627 5.91506 10.6575 5.91506C12.95 5.91006 13.375 7.41881 13.375 9.37506V13.3751H11.1113V9.83131C11.1113 8.98756 11.0963 7.90131 9.93502 7.90131C8.77377 7.90131 8.57627 8.82131 8.57627 9.77631V13.3751H6.31626V6.09131Z" fill="white"/>
        </symbol>
        <symbol id="icon-scroll-up-second" viewBox="0 0 24 24">            
            <path d="M18 15L12 9L6 15" stroke="white" stroke-width="3" stroke-linecap="round" stroke-linejoin="round">
            </path>
        </symbol>
        <symbol id="icon-vector-reviews-line" viewBox="0 0 262 692" fill="none" >
            <path fill-rule="evenodd" clip-rule="evenodd" d="M-112.705 29.9758C-25.1872 17.996 68.8415 -28.9868 141.514 30.3772C221.553 95.7587 272.298 218.921 258.843 333.482C246.211 441.036 149.967 493.953 79.059 562.122C19.7135 619.176 -36.6309 696.58 -112.705 690.682C-186.518 684.96 -223.094 588.999 -281.054 534.205C-354.026 465.218 -482.144 444.066 -490.539 333.482C-498.905 223.291 -391.523 154.627 -314.563 92.8069C-254.608 44.6462 -184.526 39.8069 -112.705 29.9758Z"  stroke-width="2"></path>
        </symbol>
        <symbol id="icon-vector-blog-line"  viewBox="0 0 405 713" fill="none">
            <path  fill-rule="evenodd" clip-rule="evenodd" d="M294.308 77.8166C375.114 43.872 453.181 -25.256 538.061 12.9151C631.545 54.9553 711.776 159.837 728.268 272.971C743.751 379.185 665.083 454.563 614.611 538.037C572.369 607.9 538.223 696.474 463.799 710.365C391.587 723.842 331.914 641.364 262.308 603.79C174.672 556.483 46.4536 569.135 10.0397 465.42C-26.2453 362.073 59.058 268.759 116.96 189.809C162.068 128.304 227.995 105.673 294.308 77.8166Z"  stroke-width="2"></path>
        </symbol>
        <symbol id="icon-vecto-reviews" viewBox="0 0 249 670" >
            <path fill-rule="evenodd" clip-rule="evenodd" d="M-114.269 28.1359C-29.1952 16.5034 62.2076 -29.1176 132.851 28.5257C210.655 92.0121 259.983 211.604 246.903 322.845C234.624 427.281 141.067 478.665 72.1399 544.858C14.4516 600.258 -40.3194 675.418 -114.269 669.691C-186.02 664.135 -221.575 570.956 -277.917 517.75C-348.851 450.763 -473.392 430.223 -481.552 322.845C-489.684 215.848 -385.301 149.174 -310.49 89.1458C-252.209 42.3811 -184.084 37.6821 -114.269 28.1359Z"></path>
        </symbol>
        <symbol id="icon-vector-blog" viewBox="0 0 17 32">
            <path d="M13.187 3.444c3.635-1.527 7.146-4.636 10.964-2.919 4.205 1.891 7.813 6.608 8.555 11.697 0.696 4.777-2.842 8.168-5.112 11.922-1.9 3.142-3.436 7.126-6.783 7.751-3.248 0.606-5.932-3.104-9.063-4.794-3.942-2.128-9.709-1.559-11.347-6.224-1.632-4.648 2.205-8.845 4.809-12.396 2.029-2.766 4.994-3.784 7.977-5.037z"></path>
        </symbol>
        <symbol id="icon-element-text-left" viewBox="0 0 34 29" fill="none" xmlns="http://www.w3.org/2000/svg">
        <path d="M23.504 16.184C23.504 15.096 23.344 14.2 23.024 13.496C22.704 12.856 22.352 12.216 21.968 11.576C21.584 11 21.232 10.36 20.912 9.656C20.592 8.952 20.432 8.056 20.432 6.968C20.432 4.728 21.04 3.064 22.256 1.976C23.408 0.952003 24.912 0.440004 26.768 0.440004C28.624 0.440004 30.16 0.952003 31.376 1.976C32.592 3.064 33.2 4.728 33.2 6.968C33.2 8.632 32.976 10.424 32.528 12.344C32.016 14.328 31.344 16.28 30.512 18.2C29.68 20.12 28.752 21.944 27.728 23.672C26.64 25.4 25.552 26.904 24.464 28.184L20.144 25.304C21.04 24.024 21.84 22.552 22.544 20.888C23.184 19.288 23.504 17.72 23.504 16.184ZM4.304 16.184C4.304 15.096 4.144 14.2 3.824 13.496C3.504 12.856 3.152 12.216 2.768 11.576C2.384 11 2.032 10.36 1.712 9.656C1.392 8.952 1.232 8.056 1.232 6.968C1.232 4.728 1.84 3.064 3.056 1.976C4.208 0.952003 5.712 0.440004 7.568 0.440004C9.424 0.440004 10.96 0.952003 12.176 1.976C13.392 3.064 14 4.728 14 6.968C14 8.632 13.776 10.424 13.328 12.344C12.816 14.328 12.144 16.28 11.312 18.2C10.48 20.12 9.552 21.944 8.528 23.672C7.44 25.4 6.352 26.904 5.264 28.184L0.943999 25.304C1.84 24.024 2.64 22.552 3.344 20.888C3.984 19.288 4.304 17.72 4.304 16.184Z" fill="#1E5B2A"/>
        </symbol>
        <symbol id="icon-element-text-right" viewBox="0 0 34 29" fill="none" xmlns="http://www.w3.org/2000/svg">
        <path d="M10.496 12.816C10.496 13.904 10.656 14.8 10.976 15.504C11.296 16.144 11.648 16.784 12.032 17.424C12.416 18 12.768 18.64 13.088 19.344C13.408 20.048 13.568 20.944 13.568 22.032C13.568 24.272 12.96 25.936 11.744 27.024C10.592 28.048 9.088 28.56 7.232 28.56C5.376 28.56 3.84 28.048 2.624 27.024C1.408 25.936 0.8 24.272 0.8 22.032C0.8 20.368 1.024 18.576 1.472 16.656C1.984 14.672 2.656 12.72 3.488 10.8C4.32 8.88 5.248 7.056 6.272 5.328C7.36 3.6 8.448 2.096 9.536 0.815998L13.856 3.696C12.96 4.976 12.16 6.448 11.456 8.112C10.816 9.712 10.496 11.28 10.496 12.816ZM29.696 12.816C29.696 13.904 29.856 14.8 30.176 15.504C30.496 16.144 30.848 16.784 31.232 17.424C31.616 18 31.968 18.64 32.288 19.344C32.608 20.048 32.768 20.944 32.768 22.032C32.768 24.272 32.16 25.936 30.944 27.024C29.792 28.048 28.288 28.56 26.432 28.56C24.576 28.56 23.04 28.048 21.824 27.024C20.608 25.936 20 24.272 20 22.032C20 20.368 20.224 18.576 20.672 16.656C21.184 14.672 21.856 12.72 22.688 10.8C23.52 8.88 24.448 7.056 25.472 5.328C26.56 3.6 27.648 2.096 28.736 0.815998L33.056 3.696C32.16 4.976 31.36 6.448 30.656 8.112C30.016 9.712 29.696 11.28 29.696 12.816Z" fill="#1E5B2A"/>
        </symbol>
        <symbol id="icon-burger" viewBox="0 0 26 14">
        <path d="M1 1L25 1" stroke-width="2" stroke-linecap="round"/>
        <path d="M1 7L25 7" stroke-width="2" stroke-linecap="round"/>
        <path d="M1 13L25 13"  stroke-width="2" stroke-linecap="round"/>
        </symbol>

    </defs>
</svg>
